# xmcd
#
# Track frame offsets: 
#        150
#        17105
#        28225
#        39766
#        53207
#        68041
#        76189
#        87561
#        101722
#        111219
#        121493
#        132313
#
# Disc length: 1874 seconds
#
# Revision: 1
# Processed by: cddbd v1.5.2PL0 Copyright (c) Steve Scherf et al.
# Submitted via: ExactAudioCopy v1.3
#
DISCID=9d07500c
DTITLE=Townes Van Zandt - The Nashville Sesions   [2015 remaster]
DYEAR=1974
DGENRE=Country
TTITLE0=At My Window
TTITLE1=Rex's Blues
TTITLE2=No Place to Fall
TTITLE3=Buckskin Stallion Blues
TTITLE4=White Freight Liner Blues
TTITLE5=Snake Song
TTITLE6=Loretta
TTITLE7=Two Girls
TTITLE8=Spider Song
TTITLE9=When She Don't Need Me
TTITLE10=Pueblo Waltz
TTITLE11=Upon My Soul
EXTD=
EXTT0=
EXTT1=
EXTT2=
EXTT3=
EXTT4=
EXTT5=
EXTT6=
EXTT7=
EXTT8=
EXTT9=
EXTT10=
EXTT11=
PLAYORDER=
